<?xml version="1.0" standalone="no"?>
<!DOCTYPE svg PUBLIC "-//W3C//DTD SVG 20010904//EN"
 "http://www.w3.org/TR/2001/REC-SVG-20010904/DTD/svg10.dtd">
<svg version="1.0" xmlns="http://www.w3.org/2000/svg"
 width="100.000000pt" height="100.000000pt" viewBox="0 0 100.000000 100.000000"
 preserveAspectRatio="xMidYMid meet">
<metadata>
Created by potrace 1.14, written by Peter Selinger 2001-2017
</metadata>
<g transform="translate(0.000000,100.000000) scale(0.100000,-0.100000)"
fill="#000000" stroke="none">
<path d="M0 500 l0 -500 500 0 500 0 0 500 0 500 -500 0 -500 0 0 -500z m198
207 c3 -15 0 -18 -18 -12 -12 4 -27 1 -35 -5 -26 -22 -17 -60 25 -106 43 -47
51 -86 27 -134 -10 -19 -20 -25 -47 -25 -24 0 -35 5 -35 15 0 10 8 14 23 12
32 -5 52 15 52 51 0 22 -10 40 -40 67 -34 31 -40 43 -40 76 0 53 24 86 58 82
17 -2 28 -10 30 -21z m72 -1 c0 -8 -4 -17 -9 -20 -10 -7 -23 19 -14 28 11 11
23 6 23 -8z m390 -93 c0 -122 12 -158 50 -158 32 0 38 23 39 158 1 64 5 107
11 107 6 0 10 -44 10 -112 0 -138 -16 -183 -65 -183 -49 0 -65 45 -65 183 0
68 4 112 10 112 6 0 10 -43 10 -107z m-268 -20 c-5 -70 -16 -93 -42 -93 -34 0
-24 -35 13 -45 30 -9 32 -13 35 -59 4 -57 -17 -89 -57 -84 -38 4 -56 48 -42
101 11 41 12 58 8 158 -2 56 15 79 58 79 l32 0 -5 -57z m120 40 c15 -13 18
-32 18 -115 0 -64 -4 -97 -10 -93 -5 3 -10 47 -10 96 0 72 -3 91 -16 96 -27
10 -39 -16 -42 -100 -6 -126 -22 -118 -22 10 0 120 -3 113 54 122 5 0 18 -6
28 -16z m373 9 c38 -27 46 -138 15 -189 -21 -35 -38 -41 -58 -21 -9 9 -12 -2
-12 -51 0 -39 -4 -60 -10 -56 -6 4 -10 69 -10 162 0 132 2 154 15 150 8 -4 17
-2 20 3 7 12 26 13 40 2z m-615 -108 c0 -75 -3 -105 -11 -102 -8 3 -13 36 -14
93 -2 94 1 115 16 115 5 0 9 -48 9 -106z"/>
<path d="M324 596 c-8 -34 4 -68 24 -64 24 5 24 81 0 86 -12 2 -19 -5 -24 -22z"/>
<path d="M320 409 c-14 -26 1 -69 25 -69 23 0 51 49 38 69 -16 25 -50 26 -63
0z"/>
<path d="M841 606 c-19 -23 -10 -137 12 -150 28 -17 47 17 47 84 0 71 -28 103
-59 66z"/>
</g>
</svg>
